<svg width="144" height="139" viewBox="0 0 144 139" fill="none" xmlns="http://www.w3.org/2000/svg">
<path d="M98.9079 86.1971C101.89 84.5885 104.425 82.2638 106.286 79.4323C108.066 82.5047 110.629 85.05 113.713 86.8084C116.798 88.5669 120.293 89.4754 123.844 89.4414C124.06 89.4467 124.277 89.4484 124.493 89.4465L124.494 89.4485L114.994 132.614C100.817 136.236 86.2706 138.217 71.6411 138.519C57.1496 138.245 42.7408 136.265 28.7123 132.621L18.6218 88.6345C19.0523 88.6527 19.4839 88.6565 19.9159 88.6459C23.3094 88.6755 26.6553 87.8462 29.6423 86.2353C32.6292 84.6244 35.1602 82.2841 36.9997 79.4323C38.8048 82.4825 41.3734 85.01 44.4524 86.7657C47.5315 88.5213 51.0147 89.4446 54.5591 89.4446C58.1035 89.4446 61.5868 88.5213 64.6658 86.7657C67.7448 85.01 70.3134 82.4825 72.1185 79.4323C73.9793 82.2638 76.5148 84.5885 79.4969 86.1971C82.4789 87.8058 85.8141 88.648 89.2024 88.648C92.5907 88.648 95.9258 87.8058 98.9079 86.1971Z" fill="#7DD3FC"/>
<path d="M106.286 75.4322C104.425 78.2638 101.89 80.5885 98.9079 82.1971C95.9258 83.8058 92.5907 84.648 89.2024 84.648C85.8141 84.648 82.4789 83.8058 79.4969 82.1971C76.5148 80.5885 73.9793 78.2638 72.1185 75.4322C70.3134 78.4825 67.7448 81.01 64.6658 82.7656C61.5868 84.5213 58.1035 85.4446 54.5591 85.4446C51.0147 85.4446 47.5315 84.5213 44.4524 82.7656C41.3734 81.01 38.8048 78.4825 36.9997 75.4322C35.1602 78.2841 32.6292 80.6244 29.6423 82.2353C26.6553 83.8462 23.3094 84.6755 19.9159 84.6459C17.3623 84.7084 14.8215 84.2672 12.4385 83.3476C10.0555 82.4279 7.87706 81.0477 6.02759 79.2859C4.17813 77.5241 2.69389 75.4152 1.65966 73.0796C0.625425 70.7441 0.0614672 68.2276 0 65.6741C0.0272664 62.4444 0.887743 59.2765 2.49816 56.4768C4.10857 53.6772 6.41439 51.3406 9.19248 49.6933C8.10223 46.6925 7.54581 43.5239 7.54844 40.3311C7.74851 32.5368 11.0333 25.1405 16.6817 19.7659C22.3301 14.3912 29.8804 11.4777 37.675 11.6647C40.842 11.6647 43.9909 12.1415 47.016 13.079C49.8821 9.03598 53.6753 5.73862 58.0779 3.46307C62.4804 1.18751 67.3642 0 72.32 0C77.2759 0 82.1596 1.18751 86.5622 3.46307C90.9647 5.73862 94.7579 9.03598 97.6241 13.079C100.648 12.1418 103.796 11.665 106.962 11.6647C114.758 11.4729 122.312 14.3834 127.964 19.757C133.616 25.1306 136.904 32.5279 137.106 40.3241C137.108 43.907 136.407 47.4556 135.041 50.7681C137.692 52.4456 139.88 54.762 141.403 57.5047C142.926 60.2474 143.737 63.3288 143.76 66.466C143.699 69.0199 143.135 71.5367 142.101 73.8727C141.067 76.2087 139.583 78.318 137.733 80.0802C135.884 81.8423 133.705 83.2228 131.322 84.1427C128.939 85.0626 126.398 85.5039 123.844 85.4414C120.293 85.4754 116.798 84.5668 113.713 82.8084C110.629 81.05 108.066 78.5047 106.286 75.4322Z" fill="#0284C7"/>
</svg>
